Coordinates
version=1
nRows=9
nColumns=24
inDegrees=yes

Units are S.I. units (second, meters, Newtons, ...)
Angles are in degrees.

endheader
time	pelvis_tilt	pelvis_list	pelvis_rotation	pelvis_tx	pelvis_ty	pelvis_tz	hip_flexion_r	hip_adduction_r	hip_rotation_r	knee_angle_r	ankle_angle_r	subtalar_angle_r	mtp_angle_r	hip_flexion_l	hip_adduction_l	hip_rotation_l	knee_angle_l	ankle_angle_l	subtalar_angle_l	mtp_angle_l	lumbar_extension	lumbar_bending	lumbar_rotation
      1.82500000	     -9.01425200	      3.42479558	    354.10162768	     -0.65524148	      1.36979520	     -0.99420570	      1.85755811	     -0.11103224	      4.82736513	    -15.73089828	     11.20245800	     -1.67693767	      7.50734552	     24.62649953	      3.37569516	    -11.58431199	      6.15937648	     -9.51854957	      6.99676769	     33.23635210	     -6.51205336	      3.30713646	     17.27488562
      1.83000000	     -8.89403660	      3.54997019	    354.08810816	     -0.64970933	      1.36941912	     -0.99450584	      1.39418393	     -0.31099086	      4.88754314	    -15.72481293	     11.24476497	     -1.70435984	      7.58623976	     24.58837714	      3.53903891	    -11.31637407	      5.48425527	     -9.77116176	      5.92515889	     33.02588232	     -6.55686017	      3.11509869	     17.20283365
      1.83500000	     -8.79443700	      3.65684420	    354.12898850	     -0.64424916	      1.36904837	     -0.99491053	      0.97301955	     -0.49494072	      4.85127910	    -15.76186627	     11.21873784	     -1.72363877	      7.68915523	     24.59067071	      3.70434707	    -10.92690536	      4.78257856	    -10.15272776	      4.71694317	     32.84924721	     -6.60891478	      2.95495172	     17.07841906
      1.84000000	     -8.71103958	      3.75810657	    354.17864208	     -0.63873468	      1.36869393	     -0.99532545	      0.56684087	     -0.66825451	      4.82035989	    -15.79820322	     11.19071786	     -1.77370509	      7.83698507	     24.60023944	      3.87056277	    -10.54895239	      4.09678902	    -10.56891523	      3.51259522	     32.72666063	     -6.63288755	      2.80348207	     16.94262471
      1.84500000	     -8.65527788	      3.87386191	    354.23262411	     -0.63321844	      1.36834697	     -0.99572761	      0.21023771	     -0.84933985	      4.81352990	    -15.87294688	     11.12606620	     -1.83828507	      7.97929101	     24.62980556	      4.04944367	    -10.15793891	      3.43708235	    -11.04354949	      2.34371286	     32.59719382	     -6.62651265	      2.63030353	     16.80211580
      1.85000000	     -8.56560921	      3.99778414	    354.29442043	     -0.62769030	      1.36808531	     -0.99613319	     -0.17276219	     -1.04206150	      4.79311677	    -15.96627579	     11.02772905	     -1.90743993	      8.13293204	     24.60419102	      4.24734904	     -9.77176394	      2.81867392	    -11.55230979	      1.24008365	     32.48420173	     -6.66404549	      2.44292470	     16.63545108
      1.85500000	     -8.51935672	      4.13643778	    354.36673878	     -0.62213164	      1.36783613	     -0.99653780	     -0.48719002	     -1.24318845	      4.78308981	    -16.10080241	     10.87781976	     -1.97957981	      8.30194850	     24.60918451	      4.45860859	     -9.36772294	      2.23598497	    -12.09513686	      0.20728491	     32.37371095	     -6.64469240	      2.23488251	     16.46310657
      1.86000000	     -8.46128321	      4.24536955	    354.46275452	     -0.61664077	      1.36763657	     -0.99702106	     -0.78865946	     -1.41574987	      4.72314290	    -16.28637168	     10.71957941	     -2.04995402	      8.52651261	     24.60957777	      4.65627032	     -8.95531559	      1.64115049	    -12.61805154	     -0.82473350	     32.30369769	     -6.66138099	      2.06639829	     16.29153528
      1.86500000	     -8.44349490	      4.35755432	    354.56594614	     -0.61115744	      1.36745455	     -0.99751749	     -1.01221959	     -1.58591068	      4.66638776	    -16.53288686	     10.52119121	     -2.11957955	      8.80333934	     24.64676251	      4.85432257	     -8.54152664	      1.05897920	    -13.12736563	     -1.77157182	     32.26851220	     -6.63977705	      1.90055146	     16.10517678
